<svg xmlns="http://www.w3.org/2000/svg" viewBox="0 0 470.15 520.97"><defs><style>.cls-1{fill:#45bcc9;}</style></defs><g id="Camada_2" data-name="Camada 2"><g id="Camada_1-2" data-name="Camada 1"><path class="cls-1" d="M413.56,0c30.52,0,55.14,24.68,56.59,53.72V521L412,471.63l-31.91-29.05-34.81-30.34,14.54,47.86H55.14C24.7,460.1,0,437,0,406.36V53.83C0,24.79,24.75.07,55.24.07H413.41ZM280.76,123.36h-.65l-4.39,4.34c45,13,66.77,33.37,66.77,33.37-29-14.5-55.13-21.75-81.27-24.68-18.88-2.94-37.77-1.39-53.72,0h-4.34c-10.21,0-31.91,4.34-61,16-10.14,4.41-16,7.29-16,7.29s21.75-21.75,69.68-33.36L193,123.34s-36.29-1.39-75.47,27.57c0,0-39.18,68.24-39.18,152.38,0,0,21.7,37.77,81.25,39.2,0,0,8.68-11.57,17.47-21.75-33.43-10.16-46.45-30.47-46.45-30.47a71.19,71.19,0,0,1,7.27,4.34h1.3a1.7,1.7,0,0,1,1.3.65v.13a1.67,1.67,0,0,0,1.31.65c7.16,2.95,14.32,5.86,20.18,8.68A177.5,177.5,0,0,0,201,316.36c20.18,2.93,43.32,4.34,69.68,0,13-2.93,26-5.8,39.07-11.62,8.46-4.34,18.88-8.68,30.32-16,0,0-13,20.31-47.86,30.47,7.16,10.12,17.26,21.71,17.26,21.71,59.56-1.3,82.7-39.07,84-37.47,0-84-39.4-152.38-39.4-152.38-35.49-26.35-68.7-27.35-74.56-27.35l1.22-.43Zm3.65,95.79c15.26,0,27.56,13,27.56,29s-12.37,29.09-27.56,29.09-27.57-13-27.57-29,12.44-29,27.57-29Zm-98.62,0c15.2,0,27.48,13,27.48,29s-12.37,29.09-27.57,29.09-27.56-13-27.56-29,12.37-29,27.56-29Z"/></g></g></svg>