<svg xmlns="http://www.w3.org/2000/svg" viewBox="0 0 87.24 77.13"><defs><style>.cls-1{fill:#45bcc9;}</style></defs><g id="Camada_2" data-name="Camada 2"><g id="Layer_1" data-name="Layer 1"><g id="Camada_2-2" data-name="Camada 2"><g id="Camada_1-2" data-name="Camada 1-2"><path class="cls-1" d="M19.81,45.36,30.12,71.14a1.16,1.16,0,0,0,1.51.64,1.24,1.24,0,0,0,.39-.25L44.56,59a1.17,1.17,0,0,1,1.54-.09l22.63,18a1.16,1.16,0,0,0,1.62-.19,1.21,1.21,0,0,0,.23-.47L87.21,1.41A1.14,1.14,0,0,0,86.33,0a1.17,1.17,0,0,0-.69.06L.71,35.46a1.16,1.16,0,0,0,0,2.15L19.15,44.7A1.19,1.19,0,0,1,19.81,45.36ZM53.67,29.51,34.89,46.64a1.2,1.2,0,0,0-.34.56l-2.43,9.19a1.15,1.15,0,0,1-1.41.82,1.13,1.13,0,0,1-.78-.69L25.28,44.9a1.16,1.16,0,0,1,.48-1.43L52.3,27.67a1.16,1.16,0,0,1,1.37,1.85Z"/></g></g></g></g></svg>