<svg xmlns="http://www.w3.org/2000/svg" viewBox="0 0 498.24 440.49"><defs><style>.cls-1{fill:#45bcc9;}</style></defs><g id="Camada_2" data-name="Camada 2"><g id="Camada_1-2" data-name="Camada 1"><path class="cls-1" d="M113.11,259,172,406.24a6.62,6.62,0,0,0,10.82,2.22l71.64-71.64a6.61,6.61,0,0,1,8.79-.51L392.49,439a6.6,6.6,0,0,0,10.56-3.74l95-427.24a6.62,6.62,0,0,0-9-7.54l-485,202a6.62,6.62,0,0,0,.16,12.28l105.12,40.5A6.62,6.62,0,0,1,113.11,259Zm193.37-90.48-107.22,97.8a6.65,6.65,0,0,0-1.94,3.19L183.42,322a6.61,6.61,0,0,1-12.53.75l-26.55-66.38a6.61,6.61,0,0,1,2.76-8.14L298.64,158C305.49,153.92,312.37,163.19,306.48,168.56Z"/></g></g></svg>